<svg xmlns="http://www.w3.org/2000/svg" xmlns:xlink="http://www.w3.org/1999/xlink"
     viewBox="0 0 820 225" width="820" height="225" role="img"
     aria-label="ANCIENT CODER — The Autonomous Coding Agent">
  <title>ANCIENT CODER — The Autonomous Coding Agent</title>

  <defs>
    <!-- Pixel font (5x7 grid, 10px pixels) -->
    <g id="gA"><path d="M10 0h30v10h-30z M0 10h10v10h-10z M40 10h10v10h-10z M0 20h10v10h-10z M40 20h10v10h-10z M0 30h50v10h-50z M0 40h10v10h-10z M40 40h10v10h-10z M0 50h10v10h-10z M40 50h10v10h-10z M0 60h10v10h-10z M40 60h10v10h-10z"/></g>
    <g id="gN"><path d="M0 0h10v10h-10z M40 0h10v10h-10z M0 10h20v10h-20z M40 10h10v10h-10z M0 20h10v10h-10z M20 20h10v10h-10z M40 20h10v10h-10z M0 30h10v10h-10z M30 30h20v10h-20z M0 40h10v10h-10z M40 40h10v10h-10z M0 50h10v10h-10z M40 50h10v10h-10z M0 60h10v10h-10z M40 60h10v10h-10z"/></g>
    <g id="gC"><path d="M10 0h30v10h-30z M0 10h10v10h-10z M40 10h10v10h-10z M0 20h10v10h-10z M0 30h10v10h-10z M0 40h10v10h-10z M0 50h10v10h-10z M40 50h10v10h-10z M10 60h30v10h-30z"/></g>
    <g id="gI"><path d="M0 0h50v10h-50z M20 10h10v10h-10z M20 20h10v10h-10z M20 30h10v10h-10z M20 40h10v10h-10z M20 50h10v10h-10z M0 60h50v10h-50z"/></g>
    <g id="gE"><path d="M0 0h50v10h-50z M0 10h10v10h-10z M0 20h10v10h-10z M0 30h40v10h-40z M0 40h10v10h-10z M0 50h10v10h-10z M0 60h50v10h-50z"/></g>
    <g id="gT"><path d="M0 0h50v10h-50z M20 10h10v10h-10z M20 20h10v10h-10z M20 30h10v10h-10z M20 40h10v10h-10z M20 50h10v10h-10z M20 60h10v10h-10z"/></g>
    <g id="gO"><path d="M10 0h30v10h-30z M0 10h10v10h-10z M40 10h10v10h-10z M0 20h10v10h-10z M40 20h10v10h-10z M0 30h10v10h-10z M40 30h10v10h-10z M0 40h10v10h-10z M40 40h10v10h-10z M0 50h10v10h-10z M40 50h10v10h-10z M10 60h30v10h-30z"/></g>
    <g id="gD"><path d="M0 0h40v10h-40z M0 10h10v10h-10z M40 10h10v10h-10z M0 20h10v10h-10z M40 20h10v10h-10z M0 30h10v10h-10z M40 30h10v10h-10z M0 40h10v10h-10z M40 40h10v10h-10z M0 50h10v10h-10z M40 50h10v10h-10z M0 60h40v10h-40z"/></g>
    <g id="gR"><path d="M0 0h40v10h-40z M0 10h10v10h-10z M40 10h10v10h-10z M0 20h10v10h-10z M40 20h10v10h-10z M0 30h40v10h-40z M0 40h10v10h-10z M20 40h10v10h-10z M0 50h10v10h-10z M30 50h20v10h-20z M0 60h10v10h-10z M40 60h10v10h-10z"/></g>

    <linearGradient id="sweep" x1="0" y1="0" x2="1" y2="0">
      <stop offset="0" stop-color="#ffffff" stop-opacity="0"/>
      <stop offset="0.5" stop-color="#ffffff" stop-opacity="0.25"/>
      <stop offset="1" stop-color="#ffffff" stop-opacity="0"/>
    </linearGradient>

    <filter id="glow" x="-60%" y="-60%" width="220%" height="220%">
      <feGaussianBlur stdDeviation="3" result="b">
        <animate attributeName="stdDeviation" values="2;4.5;2" dur="3s" begin="2s" repeatCount="indefinite"/>
      </feGaussianBlur>
      <feMerge><feMergeNode in="b"/><feMergeNode in="SourceGraphic"/></feMerge>
    </filter>
  </defs>

  <!-- Background card -->
  <rect x="0" y="0" width="820" height="225" rx="14" fill="#0B0F14" stroke="#1C2A2E" stroke-width="1"/>

  <!-- ANCIENT : letters decode in one by one -->
  <g fill="#A9B7AE">
    <g opacity="0"><use href="#gA" xlink:href="#gA" x="35"  y="42"/><animate attributeName="opacity" values="0;1;0;1" keyTimes="0;0.4;0.6;1" dur="0.3s" begin="0.15s" fill="freeze"/></g>
    <g opacity="0"><use href="#gN" xlink:href="#gN" x="95"  y="42"/><animate attributeName="opacity" values="0;1;0;1" keyTimes="0;0.4;0.6;1" dur="0.3s" begin="0.27s" fill="freeze"/></g>
    <g opacity="0"><use href="#gC" xlink:href="#gC" x="155" y="42"/><animate attributeName="opacity" values="0;1;0;1" keyTimes="0;0.4;0.6;1" dur="0.3s" begin="0.39s" fill="freeze"/></g>
    <g opacity="0"><use href="#gI" xlink:href="#gI" x="215" y="42"/><animate attributeName="opacity" values="0;1;0;1" keyTimes="0;0.4;0.6;1" dur="0.3s" begin="0.51s" fill="freeze"/></g>
    <g opacity="0"><use href="#gE" xlink:href="#gE" x="275" y="42"/><animate attributeName="opacity" values="0;1;0;1" keyTimes="0;0.4;0.6;1" dur="0.3s" begin="0.63s" fill="freeze"/></g>
    <g opacity="0"><use href="#gN" xlink:href="#gN" x="335" y="42"/><animate attributeName="opacity" values="0;1;0;1" keyTimes="0;0.4;0.6;1" dur="0.3s" begin="0.75s" fill="freeze"/></g>
    <g opacity="0"><use href="#gT" xlink:href="#gT" x="395" y="42"/><animate attributeName="opacity" values="0;1;0;1" keyTimes="0;0.4;0.6;1" dur="0.3s" begin="0.87s" fill="freeze"/></g>
  </g>

  <!-- CODER : teal, with pulsing glow -->
  <g fill="#7FC4BE" filter="url(#glow)">
    <g opacity="0"><use href="#gC" xlink:href="#gC" x="475" y="42"/><animate attributeName="opacity" values="0;1;0;1" keyTimes="0;0.4;0.6;1" dur="0.3s" begin="1.05s" fill="freeze"/></g>
    <g opacity="0"><use href="#gO" xlink:href="#gO" x="535" y="42"/><animate attributeName="opacity" values="0;1;0;1" keyTimes="0;0.4;0.6;1" dur="0.3s" begin="1.17s" fill="freeze"/></g>
    <g opacity="0"><use href="#gD" xlink:href="#gD" x="595" y="42"/><animate attributeName="opacity" values="0;1;0;1" keyTimes="0;0.4;0.6;1" dur="0.3s" begin="1.29s" fill="freeze"/></g>
    <g opacity="0"><use href="#gE" xlink:href="#gE" x="655" y="42"/><animate attributeName="opacity" values="0;1;0;1" keyTimes="0;0.4;0.6;1" dur="0.3s" begin="1.41s" fill="freeze"/></g>
    <g opacity="0"><use href="#gR" xlink:href="#gR" x="715" y="42"/><animate attributeName="opacity" values="0;1;0;1" keyTimes="0;0.4;0.6;1" dur="0.3s" begin="1.53s" fill="freeze"/></g>
  </g>

  <!-- Blinking terminal cursor -->
  <rect x="775" y="42" width="25" height="70" fill="#7FC4BE" opacity="0">
    <animate attributeName="opacity" begin="1.9s" dur="1.2s" values="1;0" keyTimes="0;0.5" calcMode="discrete" repeatCount="indefinite"/>
  </rect>

  <!-- Tagline : types in char by char (keep all tspans on ONE continuous line) -->
  <text x="410" y="154" text-anchor="middle" fill="#7D8A94" font-family="Consolas, 'Courier New', monospace" font-size="18" letter-spacing="6" xml:space="preserve"><tspan fill-opacity="0">T<animate attributeName="fill-opacity" values="0;1" dur="0.05s" begin="2s" fill="freeze"/></tspan><tspan fill-opacity="0">H<animate attributeName="fill-opacity" values="0;1" dur="0.05s" begin="2.04s" fill="freeze"/></tspan><tspan fill-opacity="0">E<animate attributeName="fill-opacity" values="0;1" dur="0.05s" begin="2.08s" fill="freeze"/></tspan><tspan> </tspan><tspan fill-opacity="0">A<animate attributeName="fill-opacity" values="0;1" dur="0.05s" begin="2.16s" fill="freeze"/></tspan><tspan fill-opacity="0">U<animate attributeName="fill-opacity" values="0;1" dur="0.05s" begin="2.2s" fill="freeze"/></tspan><tspan fill-opacity="0">T<animate attributeName="fill-opacity" values="0;1" dur="0.05s" begin="2.24s" fill="freeze"/></tspan><tspan fill-opacity="0">O<animate attributeName="fill-opacity" values="0;1" dur="0.05s" begin="2.28s" fill="freeze"/></tspan><tspan fill-opacity="0">N<animate attributeName="fill-opacity" values="0;1" dur="0.05s" begin="2.32s" fill="freeze"/></tspan><tspan fill-opacity="0">O<animate attributeName="fill-opacity" values="0;1" dur="0.05s" begin="2.36s" fill="freeze"/></tspan><tspan fill-opacity="0">M<animate attributeName="fill-opacity" values="0;1" dur="0.05s" begin="2.4s" fill="freeze"/></tspan><tspan fill-opacity="0">O<animate attributeName="fill-opacity" values="0;1" dur="0.05s" begin="2.44s" fill="freeze"/></tspan><tspan fill-opacity="0">U<animate attributeName="fill-opacity" values="0;1" dur="0.05s" begin="2.48s" fill="freeze"/></tspan><tspan fill-opacity="0">S<animate attributeName="fill-opacity" values="0;1" dur="0.05s" begin="2.52s" fill="freeze"/></tspan><tspan> </tspan><tspan fill-opacity="0">C<animate attributeName="fill-opacity" values="0;1" dur="0.05s" begin="2.6s" fill="freeze"/></tspan><tspan fill-opacity="0">O<animate attributeName="fill-opacity" values="0;1" dur="0.05s" begin="2.64s" fill="freeze"/></tspan><tspan fill-opacity="0">D<animate attributeName="fill-opacity" values="0;1" dur="0.05s" begin="2.68s" fill="freeze"/></tspan><tspan fill-opacity="0">I<animate attributeName="fill-opacity" values="0;1" dur="0.05s" begin="2.72s" fill="freeze"/></tspan><tspan fill-opacity="0">N<animate attributeName="fill-opacity" values="0;1" dur="0.05s" begin="2.76s" fill="freeze"/></tspan><tspan fill-opacity="0">G<animate attributeName="fill-opacity" values="0;1" dur="0.05s" begin="2.8s" fill="freeze"/></tspan><tspan> </tspan><tspan fill-opacity="0">A<animate attributeName="fill-opacity" values="0;1" dur="0.05s" begin="2.88s" fill="freeze"/></tspan><tspan fill-opacity="0">G<animate attributeName="fill-opacity" values="0;1" dur="0.05s" begin="2.92s" fill="freeze"/></tspan><tspan fill-opacity="0">E<animate attributeName="fill-opacity" values="0;1" dur="0.05s" begin="2.96s" fill="freeze"/></tspan><tspan fill-opacity="0">N<animate attributeName="fill-opacity" values="0;1" dur="0.05s" begin="3s" fill="freeze"/></tspan><tspan fill-opacity="0">T<animate attributeName="fill-opacity" values="0;1" dur="0.05s" begin="3.04s" fill="freeze"/></tspan></text>

  <!-- Subtitle : types in char by char (keep all tspans on ONE continuous line) -->
  <text x="410" y="190" text-anchor="middle" fill="#6FB5AF" font-style="italic" font-family="Consolas, 'Courier New', monospace" font-size="16" letter-spacing="1" xml:space="preserve"><tspan fill-opacity="0">D<animate attributeName="fill-opacity" values="0;1" dur="0.05s" begin="3.2s" fill="freeze"/></tspan><tspan fill-opacity="0">e<animate attributeName="fill-opacity" values="0;1" dur="0.05s" begin="3.225s" fill="freeze"/></tspan><tspan fill-opacity="0">s<animate attributeName="fill-opacity" values="0;1" dur="0.05s" begin="3.25s" fill="freeze"/></tspan><tspan fill-opacity="0">i<animate attributeName="fill-opacity" values="0;1" dur="0.05s" begin="3.275s" fill="freeze"/></tspan><tspan fill-opacity="0">g<animate attributeName="fill-opacity" values="0;1" dur="0.05s" begin="3.3s" fill="freeze"/></tspan><tspan fill-opacity="0">n<animate attributeName="fill-opacity" values="0;1" dur="0.05s" begin="3.325s" fill="freeze"/></tspan><tspan> </tspan><tspan fill-opacity="0">Y<animate attributeName="fill-opacity" values="0;1" dur="0.05s" begin="3.375s" fill="freeze"/></tspan><tspan fill-opacity="0">o<animate attributeName="fill-opacity" values="0;1" dur="0.05s" begin="3.4s" fill="freeze"/></tspan><tspan fill-opacity="0">u<animate attributeName="fill-opacity" values="0;1" dur="0.05s" begin="3.425s" fill="freeze"/></tspan><tspan fill-opacity="0">r<animate attributeName="fill-opacity" values="0;1" dur="0.05s" begin="3.45s" fill="freeze"/></tspan><tspan> </tspan><tspan fill-opacity="0">A<animate attributeName="fill-opacity" values="0;1" dur="0.05s" begin="3.5s" fill="freeze"/></tspan><tspan fill-opacity="0">g<animate attributeName="fill-opacity" values="0;1" dur="0.05s" begin="3.525s" fill="freeze"/></tspan><tspan fill-opacity="0">e<animate attributeName="fill-opacity" values="0;1" dur="0.05s" begin="3.55s" fill="freeze"/></tspan><tspan fill-opacity="0">n<animate attributeName="fill-opacity" values="0;1" dur="0.05s" begin="3.575s" fill="freeze"/></tspan><tspan fill-opacity="0">t<animate attributeName="fill-opacity" values="0;1" dur="0.05s" begin="3.6s" fill="freeze"/></tspan><tspan> </tspan><tspan fill-opacity="0">A<animate attributeName="fill-opacity" values="0;1" dur="0.05s" begin="3.65s" fill="freeze"/></tspan><tspan fill-opacity="0">r<animate attributeName="fill-opacity" values="0;1" dur="0.05s" begin="3.675s" fill="freeze"/></tspan><tspan fill-opacity="0">m<animate attributeName="fill-opacity" values="0;1" dur="0.05s" begin="3.7s" fill="freeze"/></tspan><tspan fill-opacity="0">y<animate attributeName="fill-opacity" values="0;1" dur="0.05s" begin="3.725s" fill="freeze"/></tspan><tspan fill-opacity="0">.<animate attributeName="fill-opacity" values="0;1" dur="0.05s" begin="3.75s" fill="freeze"/></tspan><tspan> </tspan><tspan fill-opacity="0">R<animate attributeName="fill-opacity" values="0;1" dur="0.05s" begin="3.8s" fill="freeze"/></tspan><tspan fill-opacity="0">o<animate attributeName="fill-opacity" values="0;1" dur="0.05s" begin="3.825s" fill="freeze"/></tspan><tspan fill-opacity="0">u<animate attributeName="fill-opacity" values="0;1" dur="0.05s" begin="3.85s" fill="freeze"/></tspan><tspan fill-opacity="0">t<animate attributeName="fill-opacity" values="0;1" dur="0.05s" begin="3.875s" fill="freeze"/></tspan><tspan fill-opacity="0">e<animate attributeName="fill-opacity" values="0;1" dur="0.05s" begin="3.9s" fill="freeze"/></tspan><tspan> </tspan><tspan fill-opacity="0">M<animate attributeName="fill-opacity" values="0;1" dur="0.05s" begin="3.95s" fill="freeze"/></tspan><tspan fill-opacity="0">o<animate attributeName="fill-opacity" values="0;1" dur="0.05s" begin="3.975s" fill="freeze"/></tspan><tspan fill-opacity="0">d<animate attributeName="fill-opacity" values="0;1" dur="0.05s" begin="4s" fill="freeze"/></tspan><tspan fill-opacity="0">e<animate attributeName="fill-opacity" values="0;1" dur="0.05s" begin="4.025s" fill="freeze"/></tspan><tspan fill-opacity="0">l<animate attributeName="fill-opacity" values="0;1" dur="0.05s" begin="4.05s" fill="freeze"/></tspan><tspan fill-opacity="0">s<animate attributeName="fill-opacity" values="0;1" dur="0.05s" begin="4.075s" fill="freeze"/></tspan><tspan> </tspan><tspan fill-opacity="0">P<animate attributeName="fill-opacity" values="0;1" dur="0.05s" begin="4.125s" fill="freeze"/></tspan><tspan fill-opacity="0">e<animate attributeName="fill-opacity" values="0;1" dur="0.05s" begin="4.15s" fill="freeze"/></tspan><tspan fill-opacity="0">r<animate attributeName="fill-opacity" values="0;1" dur="0.05s" begin="4.175s" fill="freeze"/></tspan><tspan> </tspan><tspan fill-opacity="0">A<animate attributeName="fill-opacity" values="0;1" dur="0.05s" begin="4.225s" fill="freeze"/></tspan><tspan fill-opacity="0">g<animate attributeName="fill-opacity" values="0;1" dur="0.05s" begin="4.25s" fill="freeze"/></tspan><tspan fill-opacity="0">e<animate attributeName="fill-opacity" values="0;1" dur="0.05s" begin="4.275s" fill="freeze"/></tspan><tspan fill-opacity="0">n<animate attributeName="fill-opacity" values="0;1" dur="0.05s" begin="4.3s" fill="freeze"/></tspan><tspan fill-opacity="0">t<animate attributeName="fill-opacity" values="0;1" dur="0.05s" begin="4.325s" fill="freeze"/></tspan><tspan fill-opacity="0">.<animate attributeName="fill-opacity" values="0;1" dur="0.05s" begin="4.35s" fill="freeze"/></tspan><tspan> </tspan><tspan fill-opacity="0">S<animate attributeName="fill-opacity" values="0;1" dur="0.05s" begin="4.4s" fill="freeze"/></tspan><tspan fill-opacity="0">h<animate attributeName="fill-opacity" values="0;1" dur="0.05s" begin="4.425s" fill="freeze"/></tspan><tspan fill-opacity="0">i<animate attributeName="fill-opacity" values="0;1" dur="0.05s" begin="4.45s" fill="freeze"/></tspan><tspan fill-opacity="0">p<animate attributeName="fill-opacity" values="0;1" dur="0.05s" begin="4.475s" fill="freeze"/></tspan><tspan> </tspan><tspan fill-opacity="0">F<animate attributeName="fill-opacity" values="0;1" dur="0.05s" begin="4.525s" fill="freeze"/></tspan><tspan fill-opacity="0">a<animate attributeName="fill-opacity" values="0;1" dur="0.05s" begin="4.55s" fill="freeze"/></tspan><tspan fill-opacity="0">s<animate attributeName="fill-opacity" values="0;1" dur="0.05s" begin="4.575s" fill="freeze"/></tspan><tspan fill-opacity="0">t<animate attributeName="fill-opacity" values="0;1" dur="0.05s" begin="4.6s" fill="freeze"/></tspan><tspan fill-opacity="0">e<animate attributeName="fill-opacity" values="0;1" dur="0.05s" begin="4.625s" fill="freeze"/></tspan><tspan fill-opacity="0">r<animate attributeName="fill-opacity" values="0;1" dur="0.05s" begin="4.65s" fill="freeze"/></tspan><tspan fill-opacity="0">.<animate attributeName="fill-opacity" values="0;1" dur="0.05s" begin="4.675s" fill="freeze"/></tspan></text>

  <!-- Periodic light sweep (after typing completes) -->
  <g opacity="0.35">
    <rect x="-140" y="30" width="120" height="170" fill="url(#sweep)"/>
    <animateTransform attributeName="transform" type="translate" begin="5s" dur="6s"
                      values="0 0; 1100 0; 1100 0" keyTimes="0;0.35;1" repeatCount="indefinite"/>
  </g>
</svg>